<svg width="233" height="56" viewBox="0 0 233 56" fill="none" xmlns="http://www.w3.org/2000/svg">
<path d="M46.2905 7.46251C47.5305 7.81251 48.1905 8.87251 48.9505 9.74251C51.9894 13.1337 54.1474 17.2203 55.2344 21.6423C56.3213 26.0642 56.3038 30.6856 55.1834 35.0992C54.0629 39.5128 51.874 43.583 48.8095 46.951C45.7449 50.319 41.899 52.8815 37.6105 54.4125C20.2805 60.8025 1.27049 48.2325 0.370489 29.7925C-0.069511 20.5025 3.37049 12.8925 10.3705 6.79251C10.6805 6.52251 11.0405 6.31251 11.3705 6.07251C11.7905 6.57251 11.3705 6.91251 11.1405 7.27251C6.95049 13.6625 5.92049 20.4125 8.74049 27.6125C11.9005 35.0825 17.6105 39.3325 25.5405 40.6125C29.5701 41.2142 33.6877 40.6051 37.3705 38.8625C40.6854 37.3597 43.5482 35.0138 45.6731 32.0588C47.7981 29.1039 49.1109 25.6433 49.4805 22.0225C50.0156 17.8629 49.2396 13.64 47.2605 9.94251C46.8605 9.16251 46.1405 8.47251 46.2905 7.46251Z" fill="#00C0E9"/>
<path d="M46.2905 7.46247C48.8372 11.2016 50.1358 15.6505 50.0005 20.1725C49.4905 28.9625 45.3705 35.4125 37.2705 39.2525C37.1873 39.039 37.1531 38.8096 37.1704 38.5811C37.1877 38.3526 37.2561 38.131 37.3705 37.9325C39.5035 31.9475 39.5282 25.4134 37.4405 19.4125C35.9717 14.9007 33.2657 10.8919 29.6305 7.84247C27.0917 5.58295 24.1365 3.84041 20.9305 2.71247C20.4505 2.55247 19.8305 2.44247 19.7705 1.71247C23.9505 0.369777 28.3896 0.0395004 32.7223 0.748856C37.0549 1.45821 41.157 3.18689 44.6905 5.79247C45.2884 6.28348 45.8255 6.84411 46.2905 7.46247Z" fill="#DCD05F"/>
<path d="M19.7705 1.73242C21.0805 2.73242 22.7005 2.94242 24.1205 3.73242C30.3423 6.86258 35.1607 12.2164 37.6205 18.7324C37.6406 18.865 37.6406 18.9999 37.6205 19.1324C36.9505 19.4524 36.3705 19.0524 35.7705 18.8824C27.9205 16.7124 20.5005 17.3624 13.7705 22.2824C12.1499 23.459 10.7628 24.9274 9.68048 26.6124C9.37048 27.0924 9.19048 27.7324 8.50048 27.8724C5.81048 21.4924 6.37048 15.2924 9.54048 9.25242C10.1205 8.17242 10.7905 7.14242 11.3705 6.09242C13.1598 4.71344 15.115 3.56446 17.1905 2.67242C18.0505 2.31242 18.9205 2.04242 19.7705 1.73242Z" fill="#EBE365"/>
<path d="M219.571 25.7226C220.098 24.8546 220.806 24.1099 221.646 23.5389C222.486 22.9679 223.439 22.5838 224.441 22.4126C228.501 21.7426 231.571 23.9526 232.271 28.0326C232.437 29.0241 232.524 30.0273 232.531 31.0326C232.531 33.8226 232.531 36.6226 232.531 39.4226C232.531 41.9826 232.531 41.9326 230.021 41.9326C229.131 41.9326 228.961 41.6126 229.021 40.8126C229.021 37.7426 229.021 34.6726 229.021 31.5926C229.037 30.9051 229.014 30.2173 228.951 29.5326C228.621 26.8326 227.181 25.2926 224.881 25.1226C223.725 25.0827 222.591 25.4373 221.664 26.128C220.737 26.8186 220.073 27.8042 219.781 28.9226C219.623 29.5464 219.559 30.19 219.591 30.8326C219.591 34.1326 219.591 37.4326 219.591 40.7326C219.591 41.5626 219.481 41.9426 218.501 41.9326C216.031 41.9326 216.031 41.9326 216.031 39.4926C216.031 31.4226 216.031 23.3526 216.031 15.2826C216.031 13.7926 216.481 13.3426 217.841 13.5726C217.979 13.6023 218.122 13.6023 218.261 13.5726C219.311 13.4026 219.661 13.7826 219.641 14.9026C219.521 18.4126 219.571 21.8426 219.571 25.7226Z" fill="white"/>
<path d="M77.9003 18.6828C75.8627 17.6445 73.5438 17.2937 71.2903 17.6828C70.4408 17.7946 69.6479 18.1705 69.0235 18.7572C68.3991 19.3439 67.9747 20.1119 67.8103 20.9528C67.6635 21.7977 67.797 22.6675 68.1906 23.4294C68.5842 24.1913 69.2163 24.8036 69.9903 25.1728C71.7703 26.2428 73.7503 26.8728 75.5903 27.8228C77.3224 28.5979 78.6852 30.0162 79.3906 31.7778C80.096 33.5395 80.0887 35.5064 79.3703 37.2628C78.2903 40.2628 75.8603 41.5928 72.9803 42.0728C70.1499 42.5833 67.2309 42.2097 64.6203 41.0028C64.3003 40.8528 63.6203 40.8428 63.8103 40.2628C64.0003 39.4228 64.3203 38.6128 64.5903 37.7928C64.8903 37.8928 65.2003 37.9828 65.4803 38.1028C67.7903 39.1028 70.1503 39.8028 72.6903 39.1528C74.7703 38.6128 76.0803 37.3128 76.2903 35.6228C76.4961 34.6433 76.3603 33.6229 75.9055 32.7314C75.4506 31.8398 74.7041 31.131 73.7903 30.7228C72.1203 29.8528 70.3603 29.1828 68.6803 28.3228C65.5403 26.7028 63.9103 24.0128 64.2803 21.1928C64.4884 19.6442 65.1808 18.201 66.2584 17.0695C67.336 15.9381 68.7437 15.1762 70.2803 14.8928C72.7229 14.3981 75.2521 14.5463 77.6203 15.3228C78.4503 15.6028 79.0003 15.9928 78.4703 16.9928C78.2431 17.5429 78.0527 18.1075 77.9003 18.6828Z" fill="white"/>
<path d="M169.94 29.9028C169.94 33.4728 169.94 37.0528 169.94 40.6228C169.94 41.6228 169.68 41.9428 168.65 41.9128C166.44 41.8428 166.44 41.9128 166.44 39.7628C166.44 33.0228 166.39 26.2828 166.44 19.5428C166.44 18.1628 166.04 17.8628 164.75 17.9328C162.87 18.0528 160.98 17.9328 159.1 17.9828C158.04 17.9828 158.1 17.3728 158.22 16.7528C158.34 16.1328 157.6 15.0428 159.04 15.0528C165.11 15.0528 171.17 15.0528 177.24 15.0528C178.59 15.0528 178.06 15.9928 178.08 16.5928C178.1 17.1928 178.5 18.0328 177.25 18.0028C175.14 17.9428 173.03 18.0028 170.92 18.0028C170.04 18.0028 169.85 18.2728 169.86 19.0928C169.96 22.6528 169.94 26.2728 169.94 29.9028Z" fill="white"/>
<path d="M196.841 32.5126C196.711 24.3226 204.221 20.5126 211.271 22.9126C212.831 23.4426 211.481 24.4326 211.441 25.1826C211.381 26.1326 210.731 25.6126 210.271 25.4426C206.981 24.2426 203.411 25.1526 201.691 27.6226C200.732 29.0604 200.25 30.7638 200.315 32.4908C200.38 34.2178 200.987 35.8805 202.051 37.2426C204.291 39.7826 207.161 39.7726 210.171 39.0626C210.611 38.9526 211.331 38.1126 211.511 39.2626C211.631 40.0826 212.621 41.1626 210.881 41.6426C208.721 42.3026 206.437 42.4499 204.211 42.0726C199.591 41.1926 196.931 37.7126 196.841 32.5126Z" fill="white"/>
<path d="M104.65 31.8228C104.65 30.1228 104.58 28.4228 104.65 26.7328C104.72 25.5628 104.33 25.1728 103.19 25.3028C102.33 25.4028 101.5 25.5128 101.53 24.0728C101.53 22.8428 101.9 22.4028 103.09 22.6028C104.28 22.8028 104.73 22.4728 104.66 21.1628C104.54 18.9328 105.15 18.4128 107.43 18.1628C108.05 18.0928 108 18.3828 108 18.7628C108 19.7628 108 20.7628 108 21.7628C108 22.4328 108.23 22.6428 108.88 22.6228C109.98 22.6228 111.09 22.6228 112.19 22.6228C113.29 22.6228 112.99 23.3628 113 23.9228C113.01 24.4828 113.25 25.2828 112.16 25.2228C111.07 25.1628 110.16 25.2228 109.16 25.2228C108.37 25.2228 108 25.3728 108.02 26.2228C108.08 29.5628 108.02 32.9128 108.08 36.2228C108.08 38.6828 109.23 39.5728 111.7 39.3428C112.04 39.3428 112.7 38.7528 112.7 39.6328C112.7 40.5128 113.44 41.6328 112.09 41.9528C108.52 42.7028 104.96 42.1428 104.73 37.1428C104.65 35.3528 104.73 33.5628 104.73 31.7828L104.65 31.8228Z" fill="white"/>
<path d="M141.77 26.4125C143.02 23.9425 144.51 22.4125 147.07 22.2525C147.96 22.2025 148.24 22.4925 148.17 23.3125C148.135 23.7251 148.135 24.1399 148.17 24.5525C148.23 25.2925 147.99 25.5525 147.17 25.6125C146.513 25.5939 145.858 25.7112 145.248 25.9571C144.638 26.203 144.085 26.5721 143.624 27.0415C143.164 27.5108 142.804 28.0702 142.57 28.6847C142.335 29.2991 142.23 29.9554 142.26 30.6125C142.15 33.9125 142.16 37.2125 142.26 40.5125C142.26 41.6625 141.96 42.1225 140.82 41.9425C140.546 41.8926 140.264 41.8926 139.99 41.9425C138.99 42.1025 138.66 41.7325 138.68 40.6825C138.74 36.0425 138.68 31.4125 138.68 26.7825C138.68 26.0425 138.68 25.3125 138.68 24.5725C138.6 22.6925 139.17 22.2525 141.09 22.6425C141.6 22.7525 141.64 23.0625 141.67 23.4125C141.68 24.2325 141.71 25.0925 141.77 26.4125Z" fill="white"/>
<path d="M155.37 32.3122C155.37 35.1122 155.37 37.9122 155.37 40.7122C155.37 41.5722 155.18 41.9122 154.24 41.9122C151.9 41.9122 151.9 41.9122 151.9 39.6022C151.9 34.3722 151.9 29.1422 151.9 23.9122C151.9 22.9122 152.06 22.5322 153.16 22.5722C155.37 22.6422 155.37 22.5722 155.37 24.7422V32.3122Z" fill="white"/>
<path d="M153.601 19.2827C153.327 19.3005 153.053 19.262 152.795 19.1695C152.538 19.0769 152.301 18.9325 152.102 18.7449C151.902 18.5574 151.743 18.3309 151.634 18.0793C151.526 17.8278 151.47 17.5566 151.471 17.2827C151.467 16.7083 151.682 16.1539 152.072 15.7323C152.462 15.3106 152.998 15.0533 153.571 15.0127C154.142 15.0291 154.687 15.2589 155.098 15.6567C155.509 16.0546 155.756 16.5918 155.791 17.1627C155.788 17.4463 155.729 17.7266 155.617 17.9872C155.506 18.2478 155.343 18.4836 155.139 18.6809C154.936 18.8781 154.695 19.0329 154.43 19.1362C154.166 19.2395 153.884 19.2893 153.601 19.2827Z" fill="white"/>
<path d="M124.91 22.242C123.596 22.2165 122.291 22.4671 121.08 22.9776C119.869 23.4882 118.779 24.2474 117.879 25.206C116.98 26.1646 116.292 27.3014 115.86 28.5427C115.428 29.784 115.261 31.1022 115.37 32.412C115.55 35.992 116.61 39.142 119.89 41.022C126.41 44.752 134.04 40.222 134.28 32.542C134.44 26.482 130.56 22.212 124.91 22.242ZM127.91 38.532C127.349 38.9893 126.695 39.321 125.994 39.505C125.294 39.6891 124.562 39.721 123.848 39.5989C123.133 39.4767 122.454 39.2032 121.854 38.7967C121.254 38.3902 120.748 37.8601 120.37 37.242C119.449 35.8318 118.932 34.1964 118.873 32.513C118.815 30.8296 119.219 29.1624 120.04 27.692C120.457 26.7846 121.138 26.0247 121.995 25.5124C122.852 25 123.844 24.7593 124.84 24.822C125.812 24.8079 126.768 25.0702 127.597 25.5783C128.425 26.0864 129.092 26.8194 129.52 27.692C130.231 29.1386 130.623 30.7209 130.67 32.332C130.5 34.712 129.94 36.962 127.94 38.532H127.91Z" fill="white"/>
<path d="M98.3709 39.8922C98.3709 38.8922 98.3709 37.8922 98.3109 36.8922C98.3109 34.1422 98.4309 31.3922 98.1409 28.6522C97.9209 26.5122 97.2509 24.6022 95.3709 23.3622C92.9709 21.7722 87.3709 21.9122 85.0609 23.6022C84.0609 24.3222 85.0609 24.9922 85.1909 25.6022C85.3409 26.4122 85.8809 25.8822 86.1909 25.7222C87.571 25.0806 89.0793 24.7625 90.6009 24.7922C91.119 24.7584 91.6386 24.8292 92.1287 25.0003C92.6189 25.1715 93.0696 25.4395 93.454 25.7885C93.8384 26.1375 94.1487 26.5602 94.3663 27.0316C94.584 27.5029 94.7046 28.0132 94.7209 28.5322C94.7909 29.1922 94.7209 29.5322 93.8909 29.5322C92.9289 29.5351 91.9689 29.6187 91.0209 29.7822C88.7756 30.0037 86.6562 30.9235 84.9609 32.4122C84.0777 33.292 83.4869 34.4223 83.2686 35.6497C83.0503 36.877 83.2152 38.1418 83.7409 39.2722C84.2551 40.3033 85.0796 41.1474 86.0985 41.6855C87.1174 42.2236 88.2793 42.4288 89.4209 42.2722C90.4822 42.2266 91.5226 41.9613 92.4761 41.4931C93.4297 41.025 94.2758 40.364 94.9609 39.5522C95.2282 40.0432 95.3691 40.5931 95.3709 41.1522C95.3709 41.5422 95.4509 41.8022 95.9609 41.8922C98.0509 42.2722 98.4509 41.9522 98.3709 39.8922ZM90.0809 39.6922C89.4364 39.7786 88.7817 39.6436 88.2239 39.3094C87.6662 38.9751 87.2385 38.4613 87.0109 37.8522C86.7009 37.1975 86.598 36.4638 86.7159 35.749C86.8338 35.0343 87.167 34.3726 87.6709 33.8522C88.6188 32.9732 89.8184 32.4137 91.1009 32.2522C91.5109 32.1722 91.9209 32.1622 92.3309 32.1222C94.8509 31.8522 94.8509 31.8522 94.8509 34.3622C94.8609 37.7122 93.0809 39.6522 90.0909 39.6922H90.0809Z" fill="white"/>
<path d="M181.05 32.8224C183.05 32.8224 185 32.8224 186.98 32.8224H190.56C194.14 32.8224 194.19 32.8224 193.63 29.2424C193.15 26.1724 191.81 23.5924 188.63 22.6424C187.063 22.0701 185.361 21.9784 183.742 22.3793C182.122 22.7801 180.659 23.6552 179.54 24.8924C176.33 28.3224 175.89 34.7224 178.54 38.5824C181.01 42.1524 188.87 43.6624 192.36 41.1724C193.17 40.5924 192.36 39.7824 192.26 39.0824C192.16 38.3824 191.62 38.7924 191.33 38.8924C189.745 39.3811 188.086 39.5843 186.43 39.4924C184.85 39.5494 183.312 38.9806 182.149 37.9095C180.986 36.8384 180.293 35.3517 180.22 33.7724C180.12 33.0524 180.31 32.8124 181.05 32.8224ZM183.46 25.1324C184.325 24.755 185.275 24.6199 186.211 24.7414C187.146 24.863 188.031 25.2366 188.77 25.8224C189.18 26.1912 189.519 26.6318 189.77 27.1224C191.03 29.6524 190.63 30.3624 187.89 30.3624H181C180.66 30.3624 180.28 30.4824 180.26 29.8524C180.23 28.4124 181.9 25.8524 183.46 25.1324Z" fill="white"/>
</svg>
