<?xml version="1.0" encoding="UTF-8"?>
<svg xmlns="http://www.w3.org/2000/svg" version="1.1" viewBox="0 0 1200 329.3">
  <defs>
    <style>
      .cls-1 {
        fill: #e34714;
      }

      .cls-2 {
        fill: #ffffff;
      }
    </style>
  </defs>
  <!-- Generator: Adobe Illustrator 28.7.1, SVG Export Plug-In . SVG Version: 1.2.0 Build 142)  -->
  <g>
    <g id="Layer_1">
      <g>
        <g>
          <g>
            <path class="cls-2" d="M979.1,301.2l-92.7-151.6c-2.7-4.4-7.4-7-12.6-7s-9.9,2.7-12.6,7l-92.7,151.6h35.3l69.9-114.3,32.5,53.2h-46.8l-14.1,23.5h75.3l23,37.7h35.3Z"/>
            <g>
              <path class="cls-2" d="M696.9,145.2c-28.9,0-85.9,0-108.2,0-5.1,0-9.3,4.1-9.3,9.3v148.1s27.8,0,27.8,0c0,0,.4-82.9.3-118,0-6-.6-11.4,8.5-11.2,25,.4,50-.4,74.9.4,18.4.6,28.7,12.3,28.4,29.5-.3,17-10.3,28.3-29.8,28.3s-62.8,0-62.8,0v27.4s48.6,0,69.5,0c31.9,0,50.9-25.3,50.7-57.5-.1-32.2-17.6-56.3-50.2-56.3Z"/>
              <path class="cls-2" d="M503.2,233.3c0,28.4-23,43.2-51.5,43.2h-12.5c-28.4,0-51.5-14.8-51.5-43.2v-90.4h-27.9v95.5c0,42.2,34.2,64.1,76.3,64.1h18.6c42.2,0,76.3-22,76.3-64.1v-95.5h-27.9v90.4Z"/>
              <path class="cls-2" d="M1195.3,143.5h-39.1l-58.9,58.9-58.9-58.9h-39.1l78.5,78.5-78.4,78.4h39.1l58.8-58.8,58.8,58.8h39.1l-78.4-78.4,78.5-78.5ZM1097.3,228.6c-3.7,0-6.7-3-6.7-6.7s3-6.7,6.7-6.7,6.7,3,6.7,6.7-3,6.7-6.7,6.7Z"/>
            </g>
          </g>
          <g>
            <path class="cls-2" d="M419.1,65.9h10.5v29.8c-7.6,6.4-18.2,9.7-29,9.7-23.5,0-40.8-16.5-40.8-39.1s17.3-39.1,41-39.1,22.4,4,29.4,11.8l-6.8,6.8c-6.3-6.1-13.6-8.9-22.2-8.9-17.7,0-30.5,12.3-30.5,29.4s12.8,29.4,30.4,29.4,12.5-1.4,17.9-4.9v-24.9Z"/>
            <path class="cls-2" d="M501.6,104.6l-16.5-23.5c-1.5.1-3.2.2-4.8.2h-18.9v23.3h-10.9V28.1h29.8c19.9,0,31.9,10.1,31.9,26.7s-6.1,20.3-16.8,24.1l18.1,25.7h-11.9ZM501.3,54.8c0-10.9-7.3-17.2-21.3-17.2h-18.6v34.4h18.6c14,0,21.3-6.3,21.3-17.3Z"/>
            <path class="cls-2" d="M529.2,71.6V28.1h10.9v43.1c0,16.9,7.8,24.6,21.5,24.6s21.6-7.7,21.6-24.6V28.1h10.6v43.5c0,22.2-12.1,33.9-32.3,33.9s-32.3-11.7-32.3-33.9Z"/>
            <path class="cls-2" d="M678,54.8c0,16.6-12,26.7-31.9,26.7h-18.9v23.2h-10.9V28.1h29.8c19.9,0,31.9,10.1,31.9,26.7ZM667.1,54.8c0-10.9-7.3-17.2-21.3-17.2h-18.6v34.3h18.6c14,0,21.3-6.2,21.3-17.2Z"/>
            <path class="cls-2" d="M689,66.4c0-22.4,17.3-39.1,40.8-39.1s40.5,16.6,40.5,39.1-17.3,39.1-40.5,39.1-40.8-16.7-40.8-39.1ZM759.3,66.4c0-16.9-12.7-29.4-29.6-29.4s-29.8,12.5-29.8,29.4,12.7,29.4,29.8,29.4,29.6-12.5,29.6-29.4Z"/>
          </g>
        </g>
        <g>
          <g>
            <path class="cls-1" d="M281.4,243.3l33-79.6-33-79.6c-2.6-6.2-10.6-7.8-15.4-3.1l-82.6,82.6,82.6,82.6c4.8,4.8,12.8,3.2,15.4-3.1Z"/>
            <path class="cls-2" d="M159.2,139.6l82.6-82.6c4.8-4.8,3.2-12.8-3.1-15.4L159.2,8.6l-79.6,33c-6.2,2.6-7.8,10.6-3.1,15.4l82.6,82.6Z"/>
            <path class="cls-2" d="M37.1,84.2L4.1,163.8l33,79.6c2.6,6.2,10.6,7.8,15.4,3.1l82.6-82.6L52.4,81.1c-4.8-4.8-12.8-3.2-15.4,3.1Z"/>
            <path class="cls-2" d="M159.2,187.9l-82.6,82.6c-4.8,4.8-3.2,12.8,3.1,15.4l79.6,33,79.6-33c6.2-2.6,7.8-10.6,3.1-15.4l-82.6-82.6Z"/>
          </g>
          <circle class="cls-2" cx="159.2" cy="163.8" r="11"/>
        </g>
      </g>
    </g>
  </g>
</svg>